<!-- <?xml version="1.0" encoding="iso-8859-1"?> -->
<!-- Generator: Adobe Illustrator 18.0.0, SVG Export Plug-In . SVG Version: 6.00 Build 0)  -->
<!-- <!DOCTYPE svg PUBLIC "-//W3C//DTD SVG 1.1//EN" "http://www.w3.org/Graphics/SVG/1.1/DTD/svg11.dtd"> -->
<svg version="1.1" id="Capa_1" xmlns="http://www.w3.org/2000/svg" xmlns:xlink="http://www.w3.org/1999/xlink" x="0px" y="0px"
	 viewBox="0 0 489.561 489.561" style="enable-background:new 0 0 489.561 489.561;" xml:space="preserve">
<g>
	<path d="M409.999,425.681c-10.718-7.456-20.855-15.911-30.282-25.337c-39.186-39.187-61.761-90.555-64.205-145.564H254.78v234.78
		C314.506,487.162,368.728,463.396,409.999,425.681z"/>
	<path d="M335.53,254.78c3.228,65.211,37.842,122.296,89.004,156.45c38.375-41.423,62.603-96.126,65.026-156.45H335.53z"/>
	<path d="M254.78,234.78h60.731c2.444-55.009,25.019-106.377,64.205-145.564c9.427-9.427,19.565-17.881,30.282-25.337
		C368.728,26.164,314.506,2.399,254.78,0V234.78z"/>
	<path d="M335.53,234.78h154.03c-2.423-60.325-26.651-115.028-65.025-156.45C373.372,112.484,338.758,169.568,335.53,234.78z"/>
	<path d="M79.563,63.879c10.717,7.456,20.854,15.911,30.281,25.337c39.187,39.187,61.761,90.554,64.205,145.564h60.732V0
		C175.056,2.399,120.834,26.165,79.563,63.879z"/>
	<path d="M234.78,254.78h-60.732c-2.444,55.009-25.018,106.377-64.205,145.564c-9.427,9.427-19.564,17.881-30.281,25.337
		c41.271,37.714,95.493,61.48,155.218,63.879V254.78z"/>
	<path d="M154.03,234.78c-3.228-65.211-37.842-122.296-89.004-156.45C26.651,119.753,2.423,174.456,0,234.78H154.03z"/>
	<path d="M154.03,254.78H0c2.423,60.324,26.651,115.027,65.026,156.45C116.189,377.075,150.803,319.992,154.03,254.78z"/>
</g>
<g>
</g>
<g>
</g>
<g>
</g>
<g>
</g>
<g>
</g>
<g>
</g>
<g>
</g>
<g>
</g>
<g>
</g>
<g>
</g>
<g>
</g>
<g>
</g>
<g>
</g>
<g>
</g>
<g>
</g>
</svg>
